<?xml version="1.0" standalone="no"?>
<!DOCTYPE svg PUBLIC "-//W3C//DTD SVG 20010904//EN"
 "http://www.w3.org/TR/2001/REC-SVG-20010904/DTD/svg10.dtd">
<svg version="1.0" xmlns="http://www.w3.org/2000/svg"
 width="500.000000pt" height="500.000000pt" viewBox="0 0 500.000000 500.000000"
 preserveAspectRatio="xMidYMid meet">
<metadata>
Created by potrace 1.14, written by Peter Selinger 2001-2017
</metadata>
<g transform="translate(0.000000,500.000000) scale(0.100000,-0.100000)"
fill="#000000" stroke="none">
<path d="M760 2500 l0 -480 1740 0 1740 0 0 480 0 480 -1740 0 -1740 0 0 -480z
m3450 0 l0 -450 -1715 0 -1715 0 0 450 0 450 1715 0 1715 0 0 -450z"/>
<path d="M850 2500 l0 -390 825 0 825 0 0 390 0 390 -825 0 -825 0 0 -390z
m279 115 c16 -8 31 -23 34 -35 7 -26 -13 -26 -36 0 -22 26 -73 27 -86 2 -14
-26 -3 -38 58 -61 58 -22 71 -34 71 -68 0 -53 -101 -73 -145 -28 -26 25 -32
45 -15 45 5 0 20 -11 34 -25 28 -28 53 -32 81 -11 24 17 14 43 -22 57 -75 30
-91 39 -95 56 -16 62 56 102 121 68z m271 -5 c0 -5 -16 -10 -35 -10 l-35 0 0
-100 c0 -82 -3 -100 -15 -100 -12 0 -15 18 -15 100 l0 100 -40 0 c-22 0 -40 5
-40 10 0 6 37 10 90 10 53 0 90 -4 90 -10z m215 -10 c24 -27 22 -80 -4 -102
-27 -21 -26 -24 5 -65 23 -30 23 -33 6 -33 -11 0 -30 16 -46 40 -19 29 -33 40
-51 40 -22 0 -25 -4 -25 -40 0 -29 -4 -40 -15 -40 -12 0 -15 19 -15 110 l0
110 63 0 c51 0 68 -4 82 -20z m235 10 c0 -5 -25 -10 -55 -10 l-55 0 0 -35 0
-35 50 0 c38 0 50 -4 50 -15 0 -11 -12 -15 -50 -15 l-50 0 0 -35 0 -35 54 0
c39 0 55 -4 60 -15 5 -14 -5 -15 -66 -13 l-72 3 1 105 c1 58 2 106 2 108 3 8
131 0 131 -8z m215 -91 c22 -56 42 -106 43 -110 2 -5 -3 -9 -12 -9 -9 0 -18
11 -22 25 -6 23 -11 25 -65 25 -54 0 -59 -2 -65 -25 -3 -14 -12 -25 -20 -25
-20 0 -19 3 27 118 29 71 46 102 58 102 11 0 28 -30 56 -101z m145 55 c0 -45
0 -45 33 -42 27 3 35 10 51 46 11 23 25 42 33 42 18 0 16 -7 -12 -65 l-24 -49
30 -53 c24 -42 27 -53 15 -53 -9 0 -28 22 -44 50 -22 41 -32 50 -54 50 -27 0
-28 -2 -28 -50 0 -38 -4 -50 -15 -50 -12 0 -15 19 -15 110 0 91 3 110 15 110
11 0 15 -12 15 -46z"/>
<path d="M1500 2555 l0 -45 45 0 c34 0 47 5 55 20 20 38 -12 70 -71 70 -28 0
-29 -2 -29 -45z"/>
<path d="M1991 2542 c-8 -20 -16 -43 -18 -49 -4 -9 7 -13 36 -13 l41 0 -17 43
c-23 60 -27 62 -42 19z"/>
<path d="M2620 2605 c0 -34 1 -35 40 -35 l40 0 0 -95 0 -95 35 0 35 0 0 95 0
95 40 0 c39 0 40 1 40 35 l0 35 -115 0 -115 0 0 -35z"/>
<path d="M2890 2510 l0 -130 40 0 c39 0 40 1 40 35 0 22 5 35 13 35 7 0 21
-16 30 -35 15 -31 21 -35 57 -35 22 0 40 2 40 5 0 3 -9 23 -19 43 -19 37 -19
38 0 61 19 23 25 74 13 106 -12 29 -60 45 -139 45 l-75 0 0 -130z m139 56 c15
-18 5 -43 -21 -49 -32 -9 -48 3 -48 34 0 25 4 29 29 29 16 0 34 -6 40 -14z"/>
<path d="M3188 2517 c-27 -68 -48 -126 -48 -130 0 -4 17 -7 39 -7 30 0 40 4
44 20 4 16 14 20 50 20 37 0 47 -4 52 -20 5 -16 15 -20 46 -20 47 0 48 -13
-14 145 l-44 110 -39 3 -39 3 -47 -124z m111 -39 c1 -5 -10 -8 -24 -8 -28 0
-30 4 -13 51 l11 33 13 -34 c7 -19 13 -38 13 -42z"/>
<path d="M3423 2628 c2 -7 24 -66 48 -131 l44 -118 39 3 c35 3 41 7 52 38 7
19 28 77 47 128 l35 93 -40 -3 c-41 -3 -41 -4 -65 -68 -28 -74 -31 -78 -37
-59 -47 133 -44 129 -88 129 -28 0 -39 -4 -35 -12z"/>
<path d="M3720 2510 l0 -130 90 0 90 0 0 30 c0 30 -1 30 -55 30 -48 0 -55 2
-55 20 0 17 7 20 50 20 49 0 50 1 50 30 0 29 -1 30 -50 30 -43 0 -50 3 -50 20
0 18 7 20 55 20 54 0 55 0 55 30 l0 30 -90 0 -90 0 0 -130z"/>
<path d="M3950 2510 l0 -130 90 0 90 0 0 35 0 35 -55 0 -55 0 0 95 0 95 -35 0
-35 0 0 -130z"/>
</g>
</svg>
